<mxfile host="app.diagrams.net" modified="2024-05-11T09:56:09.336Z" agent="Mozilla/5.0 (Windows NT 10.0; Win64; x64) AppleWebKit/537.36 (KHTML, like Gecko) Chrome/124.0.0.0 Safari/537.36" version="22.1.21" etag="2r3gsxPkPuJEOXNV6Crk" type="github">
  <diagram name="第 1 页" id="Axo8Q0lhjv4f7oqCA0xT">
    <mxGraphModel>
      <root>
        <mxCell id="0" />
        <mxCell id="1" parent="0" />
      </root>
    </mxGraphModel>
  </diagram>
</mxfile>
